<?xml version="1.0" standalone="no"?>
<!DOCTYPE svg PUBLIC "-//W3C//DTD SVG 20010904//EN"
 "http://www.w3.org/TR/2001/REC-SVG-20010904/DTD/svg10.dtd">
<svg version="1.0" xmlns="http://www.w3.org/2000/svg"
 width="400.000000pt" height="400.000000pt" viewBox="0 0 400.000000 400.000000"
 preserveAspectRatio="xMidYMid meet">

<g transform="translate(0.000000,400.000000) scale(0.100000,-0.100000)"
fill="#000000" stroke="none">
<path d="M1745 3945 c-366 -52 -701 -197 -980 -425 -85 -70 -254 -243 -316
-325 -225 -294 -372 -676 -394 -1025 -10 -156 -12 -324 -4 -355 4 -16 10 -59
14 -95 8 -88 12 -130 18 -160 14 -78 20 -101 28 -106 5 -3 9 -19 9 -35 0 -17
4 -28 9 -25 5 3 11 -3 14 -14 3 -13 1 -18 -5 -14 -6 4 -4 -6 5 -22 8 -16 25
-58 38 -94 12 -36 26 -69 31 -74 4 -6 8 -20 8 -33 0 -13 3 -23 8 -23 4 0 14
-15 21 -32 18 -40 91 -171 100 -178 3 -3 12 -16 20 -30 67 -120 342 -420 454
-495 9 -5 54 -36 101 -67 47 -32 89 -58 92 -58 4 0 31 -16 60 -35 29 -19 60
-35 69 -35 9 0 13 -4 10 -10 -3 -5 3 -10 14 -10 12 0 44 -11 73 -25 28 -14 58
-25 65 -25 7 0 21 -4 31 -9 36 -19 180 -63 252 -77 19 -3 67 -12 105 -20 91
-17 626 -14 648 4 7 6 16 10 19 7 19 -19 478 131 478 156 0 5 8 9 18 9 9 0 35
11 57 25 22 13 52 30 66 37 61 31 139 83 139 94 0 8 9 10 23 7 12 -3 19 -3 15
2 -8 8 15 35 29 35 23 0 263 225 263 246 0 8 6 11 17 7 11 -4 14 -3 9 5 -4 7
-2 12 4 12 7 0 10 7 7 14 -4 10 -1 13 8 10 9 -4 16 3 21 20 3 14 10 23 15 20
5 -3 6 3 2 13 -3 10 -3 15 2 11 9 -9 25 7 50 49 10 18 23 29 28 26 6 -4 8 3 5
15 -4 12 -3 20 2 17 12 -7 35 26 54 78 13 34 22 47 32 43 9 -3 14 0 13 7 -3
13 35 98 61 137 17 24 44 95 45 115 0 6 9 26 19 45 23 44 44 122 38 140 -5 15
-41 -83 -42 -112 0 -9 -3 -18 -8 -20 -4 -1 -20 -34 -36 -73 -112 -270 -343
-567 -576 -743 -184 -138 -417 -262 -610 -326 -488 -159 -1015 -122 -1465 104
-148 74 -275 165 -275 198 0 12 -4 22 -10 22 -5 0 -9 3 -9 8 1 4 1 9 -1 12 -1
3 -3 18 -5 34 -2 16 -8 32 -13 35 -9 6 -36 68 -32 73 2 2 -7 22 -18 44 -12 23
-19 44 -16 46 2 3 -2 11 -11 18 -8 7 -15 18 -15 24 0 25 -44 103 -94 166 -132
167 -197 280 -268 470 -62 166 -107 386 -109 537 -1 49 -3 61 -9 43 -7 -22 -8
-21 -9 13 -1 21 3 36 8 33 4 -3 13 52 20 122 20 223 70 407 166 608 87 182
255 410 293 398 14 -5 15 -4 2 5 -13 9 -6 19 40 66 48 49 82 72 65 45 -3 -6 1
-7 10 -3 12 4 13 8 5 13 -30 19 193 183 370 274 546 278 1197 243 1715 -92
148 -95 290 -226 412 -377 51 -64 63 -85 58 -105 -4 -19 -3 -22 5 -10 9 13 13
11 30 -10 11 -14 18 -31 15 -38 -3 -7 -1 -11 4 -8 13 9 41 -57 35 -85 -4 -20
-3 -21 4 -5 6 14 11 16 16 7 4 -6 2 -20 -6 -29 -12 -15 -11 -16 4 -4 14 11 18
10 28 -8 6 -11 8 -26 4 -32 -4 -6 -3 -8 3 -5 12 8 101 -213 126 -313 30 -117
48 -243 54 -383 3 -76 9 -134 12 -129 8 13 71 21 71 9 0 -5 13 -7 30 -4 16 4
32 2 35 -3 4 -6 14 -5 26 3 16 10 21 9 29 -3 13 -20 12 -100 -1 -175 -5 -33
-14 -85 -18 -115 -5 -30 -12 -72 -16 -92 -5 -26 -4 -38 4 -38 6 0 11 15 11 33
0 19 3 37 6 40 4 3 8 21 10 39 1 18 5 47 8 63 19 121 28 371 15 397 -5 9 -5
18 0 20 22 8 -42 360 -95 523 -36 111 -126 301 -198 418 -267 431 -726 758
-1226 871 -200 45 -500 59 -695 31z m2187 -1829 c3 -15 0 -27 -8 -30 -24 -9
-44 5 -44 30 0 35 46 34 52 0z m-3695 -108 c-3 -8 -6 -5 -6 6 -1 11 2 17 5 13
3 -3 4 -12 1 -19z m3554 -845 c-12 -20 -14 -14 -5 12 4 9 9 14 11 11 3 -2 0
-13 -6 -23z"/>
<path d="M1775 3675 c-330 -47 -615 -175 -880 -397 -98 -81 -140 -125 -204
-212 -23 -31 -46 -54 -50 -52 -4 3 -8 -1 -8 -8 0 -7 -21 -45 -47 -85 -150
-233 -246 -519 -263 -785 -6 -104 -6 -106 15 -107 12 -1 63 -2 112 -3 69 -1
93 -5 100 -16 8 -13 13 -12 40 3 23 14 34 16 44 8 7 -6 27 -8 45 -5 29 6 31 5
31 -23 0 -21 7 -33 25 -43 19 -10 22 -16 14 -27 -9 -10 -8 -13 5 -13 9 0 16 8
16 17 0 15 2 15 14 -2 11 -15 17 -17 28 -8 7 7 30 11 51 10 l37 -2 0 -179 0
-178 113 4 c142 4 188 26 227 103 34 67 35 187 3 256 -23 51 -79 92 -143 104
-46 8 -80 26 -80 40 0 7 -22 15 -52 19 -29 4 -57 11 -63 15 -17 13 -64 19 -68
8 -2 -7 -13 -6 -32 1 -17 6 -23 11 -13 11 12 1 15 6 11 17 -3 8 -12 13 -20 10
-7 -3 -34 1 -59 10 -25 8 -48 13 -51 11 -2 -3 5 -8 16 -12 12 -3 21 -11 21
-16 0 -5 -11 -2 -24 7 -14 8 -46 22 -73 29 -101 30 -153 50 -153 62 0 9 10 8
36 -3 20 -8 38 -13 40 -11 3 3 -14 12 -38 22 l-43 18 28 9 c21 8 26 14 22 29
-4 10 -3 24 1 31 10 17 11 58 2 64 -12 8 13 29 50 42 25 8 42 8 77 -2 24 -8
46 -11 49 -8 3 2 12 -1 21 -8 17 -14 47 -6 44 12 -3 26 1 39 11 33 5 -3 20 -3
34 1 23 5 24 9 19 62 -4 48 -1 62 19 91 70 102 240 99 327 -5 16 -21 28 -41
26 -44 -3 -4 -26 -13 -52 -19 -46 -12 -47 -12 -70 18 -44 56 -143 49 -143 -10
0 -33 19 -48 99 -80 31 -12 75 -35 99 -51 32 -22 42 -25 42 -13 0 8 5 15 11
15 6 0 8 -9 4 -20 -5 -16 -2 -20 17 -21 17 -1 18 -3 5 -6 -13 -3 -15 -10 -10
-31 12 -41 6 -111 -12 -138 -23 -35 -19 -44 18 -39 17 3 26 3 20 -1 -18 -8
-16 -24 2 -24 18 0 20 -16 3 -23 -7 -3 1 -10 17 -17 51 -20 82 -23 95 -8 18
19 103 11 96 -8 -8 -20 4 -23 112 -26 81 -3 93 -2 98 14 7 23 25 23 57 -2 14
-11 30 -20 36 -20 6 0 11 -5 11 -10 0 -7 6 -7 19 0 31 16 81 13 81 -6 0 -8 -4
-13 -8 -10 -13 8 -69 -30 -87 -58 -24 -36 -23 -100 1 -133 11 -16 62 -50 112
-77 92 -48 101 -60 82 -97 -19 -34 -113 -18 -125 23 -8 22 -36 23 -76 3 -28
-15 -29 -16 -14 -45 20 -38 70 -75 122 -90 49 -15 119 -2 165 31 53 38 62 147
16 197 -13 13 -59 41 -103 62 -94 43 -109 57 -91 82 19 26 75 17 101 -15 19
-25 23 -25 63 -15 24 6 46 17 49 25 7 17 -41 80 -67 88 -19 6 -28 39 -12 48 4
2 35 0 69 -6 52 -9 65 -8 87 6 14 10 26 13 26 7 0 -7 6 -8 18 -1 23 12 69 3
77 -16 4 -12 2 -13 -8 -5 -15 13 -57 12 -57 -1 0 -5 -9 -7 -20 -4 -19 5 -19
-2 -19 -234 0 -227 1 -239 19 -249 24 -13 89 -10 98 5 10 14 19 445 10 445 -5
0 -8 6 -8 14 0 9 12 16 33 18 24 2 37 -3 54 -22 22 -24 22 -24 23 -4 0 12 7
24 15 28 8 3 15 13 15 22 0 11 5 14 16 10 9 -3 18 -6 20 -6 3 0 2 -5 -1 -10
-4 -6 -1 -18 7 -27 11 -15 11 -16 -4 -10 -10 3 -17 3 -16 -1 2 -4 -9 -19 -22
-33 -34 -35 -54 -63 -59 -80 -18 -71 -22 -102 -18 -152 3 -32 11 -65 19 -74
11 -14 11 -16 -1 -8 -24 14 7 -30 63 -88 27 -28 33 -30 100 -30 119 1 206 8
206 16 0 4 0 59 0 122 l0 115 -95 0 -95 0 0 -45 c0 -34 5 -47 20 -55 15 -8 20
-8 20 2 0 10 2 10 9 -1 5 -7 14 -10 20 -7 15 10 13 -5 -3 -26 -7 -10 -28 -21
-45 -24 -27 -6 -37 -2 -55 17 -12 14 -20 31 -18 38 3 9 0 11 -8 6 -9 -6 -9 -3
0 15 8 15 8 20 1 16 -8 -5 -11 15 -11 64 0 69 2 74 35 107 40 40 65 39 106 -8
25 -29 27 -29 65 -17 33 11 39 17 36 38 -5 44 -4 55 8 80 31 70 32 70 158 70
29 0 51 4 48 9 -6 9 11 5 67 -15 27 -10 20 -25 -10 -22 -20 2 -27 -1 -25 -11
2 -10 -5 -12 -30 -7 -18 3 -34 11 -36 16 -6 16 -22 12 -22 -5 0 -8 -9 -15 -20
-15 -19 0 -20 -7 -20 -236 l0 -235 48 3 47 3 0 138 0 138 20 -25 c12 -15 50
-78 85 -141 l65 -115 48 0 47 0 0 256 c0 213 2 255 13 245 8 -6 17 -8 20 -4 4
3 7 1 7 -5 0 -6 7 -9 15 -6 8 4 15 1 15 -6 0 -6 4 -9 9 -5 5 3 12 1 16 -5 10
-16 25 -12 25 8 0 14 2 14 9 3 11 -18 51 -25 51 -10 0 6 7 8 16 5 12 -4 15 -2
10 9 -3 8 -1 15 4 15 19 0 10 21 -12 30 -16 6 -18 9 -6 9 28 1 48 -10 48 -28
0 -12 2 -13 9 -3 4 8 21 13 37 12 89 -6 113 10 42 28 l-43 10 55 -4 c106 -8
160 -24 160 -45 0 -10 5 -19 10 -19 6 0 10 11 10 24 0 18 -8 27 -32 35 -17 6
-29 14 -25 17 3 3 15 1 26 -6 32 -16 34 2 16 121 -18 120 -54 258 -95 366 -16
42 -27 81 -23 87 3 6 2 8 -2 3 -5 -4 -23 23 -41 60 -30 62 -56 110 -77 138 -4
5 -35 48 -69 95 -70 97 -220 251 -323 331 -209 163 -462 278 -725 330 -138 27
-404 34 -545 14z m-277 -1129 c23 -84 46 -164 51 -177 10 -27 3 -44 74 206
l34 120 82 3 81 3 -2 -278 -3 -278 -50 0 -50 0 -5 185 -5 185 -49 -175 c-27
-96 -53 -181 -59 -187 -15 -20 -75 -16 -85 5 -5 9 -28 91 -53 181 l-44 163 -5
-178 -5 -179 -50 0 -50 0 -3 278 -2 277 78 0 79 0 41 -154z m686 137 c44 -148
146 -515 146 -527 0 -14 -9 -17 -52 -14 l-53 3 -19 58 -18 57 -79 0 -79 0 -17
-60 -18 -60 -51 0 c-28 0 -53 2 -56 5 -6 6 7 53 149 538 4 14 17 17 73 17 57
0 70 -3 74 -17z m546 -9 c97 -57 107 -224 15 -266 -14 -6 -25 -17 -25 -24 0
-7 25 -60 55 -119 30 -59 55 -112 55 -117 0 -5 -27 -8 -60 -7 -69 2 -66 -1
-125 131 -38 85 -39 86 -77 90 -22 2 -41 2 -44 -1 -2 -2 -4 -53 -4 -112 l0
-108 -52 2 -53 2 -3 278 -2 279 142 -4 c122 -3 148 -6 178 -24z m550 -24 l0
-50 -70 0 -70 0 -1 -217 c-1 -120 -1 -224 0 -230 1 -9 -16 -13 -59 -13 l-60 0
0 39 c0 36 -2 39 -35 45 -19 4 -35 11 -35 16 0 12 -2 12 38 1 l32 -10 0 185 0
184 -70 0 -70 0 0 50 0 50 200 0 200 0 0 -50z m-1993 -266 c-3 -3 -12 -4 -19
-1 -8 3 -5 6 6 6 11 1 17 -2 13 -5z m-61 -122 c12 -8 4 -42 -11 -45 -6 -1 -10
10 -10 26 -1 28 3 32 21 19z m1364 -12 c0 -5 -6 -10 -14 -10 -8 0 -18 5 -21
10 -3 6 3 10 14 10 12 0 21 -4 21 -10z m-2087 -50 c15 0 17 -3 8 -13 -9 -11
-2 -18 32 -31 106 -44 208 -79 282 -95 68 -15 79 -21 77 -37 -5 -25 -20 -34
-57 -34 -34 0 -55 15 -55 40 0 10 -42 30 -136 65 -139 51 -178 70 -169 85 3 4
-2 10 -10 14 -8 3 -15 11 -15 18 0 9 3 9 12 0 7 -7 21 -12 31 -12z m2800 -33
c31 -5 57 -13 57 -17 0 -12 -92 1 -122 17 -31 15 -39 30 -10 18 9 -4 43 -12
75 -18z m-2669 -16 c4 -5 -3 -7 -14 -4 -23 6 -26 13 -6 13 8 0 17 -4 20 -9z
m2557 -8 c12 -15 12 -16 -4 -10 -10 4 -23 7 -28 7 -5 0 -9 5 -9 10 0 16 26 12
41 -7z m-628 -57 c30 7 34 0 13 -22 -17 -17 -26 -17 -63 -3 -27 10 -27 11 -9
25 13 9 22 11 26 3 4 -6 18 -7 33 -3z m-668 -21 c-40 -14 -61 -11 -35 5 8 6
29 10 45 9 29 0 29 0 -10 -14z m-935 -21 c0 -2 -7 -4 -15 -4 -8 0 -15 4 -15
10 0 5 7 7 15 4 8 -4 15 -8 15 -10z m990 6 c0 -5 -7 -7 -15 -4 -8 4 -15 8 -15
10 0 2 7 4 15 4 8 0 15 -4 15 -10z m669 -13 c0 -9 -2 -8 -6 1 -2 6 -10 9 -15
6 -7 -4 -8 -2 -4 5 9 13 26 5 25 -12z m514 6 c-7 -2 -19 -2 -25 0 -7 3 -2 5
12 5 14 0 19 -2 13 -5z m-146 -26 c4 -7 27 -21 51 -31 l42 -19 -1 -76 c0 -42
-4 -85 -8 -95 -8 -21 -6 -24 -91 123 -38 66 -41 75 -27 86 9 7 14 15 10 18 -3
4 -1 7 5 7 6 0 15 -6 19 -13z m-1862 -91 c36 -36 50 -99 36 -166 -15 -74 -46
-102 -110 -98 l-46 3 -3 143 -3 142 51 0 c40 0 56 -5 75 -24z"/>
<path d="M2107 2540 c-8 -21 -47 -165 -47 -173 0 -4 23 -7 50 -7 28 0 50 3 50
8 -1 29 -49 184 -53 172z"/>
<path d="M2522 2533 l3 -68 68 2 c83 1 99 13 95 67 -4 51 -29 66 -111 66 l-58
0 3 -67z"/>
<path d="M3467 2886 c-4 -10 -3 -15 3 -11 6 3 11 -4 11 -17 1 -16 3 -18 6 -6
2 10 0 25 -5 34 -8 15 -10 15 -15 0z"/>
<path d="M840 2456 c0 -2 8 -10 18 -17 15 -13 16 -12 3 4 -13 16 -21 21 -21
13z"/>
<path d="M792 2388 c-19 -19 -22 -20 -22 -5 0 19 -8 21 -28 8 -22 -13 13 -34
49 -29 27 4 32 1 41 -24 8 -21 15 -27 32 -24 14 2 30 -5 45 -20 12 -12 28 -21
35 -18 7 3 20 -4 29 -14 13 -14 26 -17 58 -13 23 3 46 13 52 22 10 16 1 76
-10 65 -3 -3 -12 2 -20 12 -10 12 -16 14 -19 5 -3 -7 -13 -13 -21 -13 -12 0
-13 3 -4 14 9 11 6 15 -16 21 -15 3 -29 2 -31 -3 -3 -11 -52 -4 -70 11 -7 5
-15 7 -19 4 -3 -4 -15 0 -27 8 -26 19 -27 19 -54 -7z"/>
<path d="M570 2215 c33 -19 50 -18 26 0 -11 8 -27 15 -35 15 -10 -1 -7 -6 9
-15z"/>
<path d="M3680 2036 c0 -8 -5 -16 -12 -18 -7 -3 -6 -7 5 -11 13 -5 17 -1 17
18 0 14 -2 25 -5 25 -3 0 -5 -6 -5 -14z"/>
<path d="M1344 2027 c-2 -7 -3 -111 -2 -232 l3 -220 160 0 160 0 0 40 0 40
-107 3 -108 3 0 54 0 55 75 0 75 0 0 45 0 45 -75 0 -75 0 0 45 0 45 105 0 105
0 0 45 0 45 -155 0 c-117 0 -157 -3 -161 -13z"/>
<path d="M3670 1917 c0 -35 -6 -36 -61 -19 -40 13 -54 14 -70 4 -10 -7 -19 -8
-19 -3 0 5 -14 4 -31 -2 -26 -10 -33 -9 -42 4 -11 15 -16 14 -47 -7 -35 -25
-60 -31 -60 -15 0 5 -7 12 -16 15 -19 7 -54 -20 -54 -41 0 -16 36 -18 46 -2 5
8 9 8 14 -1 4 -6 24 -12 44 -13 20 -1 36 -5 36 -9 0 -17 18 -7 23 13 5 20 11
21 76 17 39 -3 71 -1 71 3 0 5 5 9 10 9 6 0 10 -7 10 -16 0 -14 1 -14 16 0 8
9 29 16 45 16 27 0 29 3 29 35 0 19 -4 35 -10 35 -5 0 -10 -10 -10 -23z"/>
<path d="M341 1804 c-1 -6 6 -57 14 -115 22 -149 66 -281 140 -424 68 -132
113 -205 128 -205 13 0 8 27 -8 40 -8 7 -12 16 -9 21 3 5 -6 28 -20 51 -13 24
-27 58 -31 76 -4 20 -12 32 -19 29 -8 -3 -11 4 -8 23 2 15 -1 31 -7 34 -6 4
-11 20 -11 35 0 16 -11 45 -25 65 -14 20 -25 46 -25 57 0 25 -39 109 -51 109
-5 0 -9 15 -10 33 0 26 -2 29 -9 12 -6 -15 -8 -9 -8 24 0 24 -4 46 -10 50 -5
3 -14 26 -20 51 -5 25 -10 40 -11 34z"/>
<path d="M3886 1475 c-4 -14 -2 -33 4 -43 10 -15 11 -15 6 2 -4 10 -1 25 5 33
8 9 9 17 2 24 -7 7 -13 2 -17 -16z"/>
<path d="M3480 1173 c0 -15 18 -35 23 -27 3 5 -1 15 -9 22 -8 7 -14 9 -14 5z"/>
<path d="M3466 1117 c3 -10 9 -15 12 -12 3 3 0 11 -7 18 -10 9 -11 8 -5 -6z"/>
<path d="M2341 698 c-12 -43 -24 -85 -28 -93 -3 -10 2 -15 16 -15 12 0 24 7
27 15 4 9 19 15 35 15 19 0 29 -5 29 -15 0 -8 9 -15 20 -15 11 0 20 3 20 6 0
8 -43 168 -46 172 -1 2 -13 5 -27 6 -23 3 -26 -3 -46 -76z m59 -25 c0 -7 -7
-13 -16 -13 -11 0 -14 5 -10 16 3 9 6 21 6 27 0 16 20 -14 20 -30z"/>
<path d="M2492 772 c-9 -6 -12 -33 -10 -97 l3 -88 48 1 c68 1 67 1 67 17 0 9
-9 15 -24 15 -51 0 -56 7 -56 86 0 74 -3 81 -28 66z"/>
<path d="M2637 691 c-15 -49 -27 -92 -27 -95 0 -4 11 -6 25 -6 16 0 25 6 25
15 0 22 42 19 63 -5 19 -23 37 -26 37 -7 0 6 -11 50 -23 97 -20 76 -25 85 -48
88 -24 3 -27 -2 -52 -87z m63 -18 c0 -7 -7 -13 -16 -13 -11 0 -14 5 -10 16 3
9 6 21 6 27 0 16 20 -14 20 -30z"/>
<path d="M1322 750 c-17 -16 -22 -32 -22 -70 0 -69 23 -91 90 -88 l50 2 0 43
c0 42 0 43 -35 43 -24 0 -35 -5 -35 -15 0 -9 9 -15 21 -15 18 0 19 -2 9 -15
-30 -37 -75 8 -64 64 8 37 28 49 55 33 22 -14 49 -16 49 -4 0 18 -38 42 -66
42 -17 0 -40 -9 -52 -20z"/>
<path d="M1480 709 c0 -88 19 -119 75 -119 56 0 75 31 75 119 0 54 -2 61 -20
61 -17 0 -19 -8 -22 -66 -2 -49 -7 -70 -20 -77 -31 -20 -48 8 -48 79 0 57 -2
64 -20 64 -18 0 -20 -7 -20 -61z"/>
<path d="M1700 763 c0 -5 -11 -45 -24 -90 -22 -78 -23 -83 -5 -83 10 0 21 9
24 20 4 13 15 20 32 20 16 0 27 -7 30 -20 3 -11 14 -20 24 -20 24 0 24 -4 -7
96 -23 75 -28 84 -50 84 -13 0 -24 -3 -24 -7z m40 -85 c0 -10 -7 -18 -16 -18
-11 0 -14 5 -10 16 3 9 6 23 6 32 0 15 2 15 10 2 5 -8 10 -23 10 -32z"/>
<path d="M1800 756 c0 -8 10 -16 23 -18 20 -3 22 -9 25 -75 2 -55 6 -73 17
-73 11 0 15 18 17 73 3 66 5 72 26 75 12 2 22 10 22 18 0 11 -15 14 -65 14
-50 0 -65 -3 -65 -14z"/>
<path d="M1960 680 l0 -90 59 0 c43 0 60 4 65 15 4 12 -4 15 -39 15 -41 0 -45
2 -45 25 0 21 5 25 30 25 20 0 30 5 30 15 0 10 -10 15 -30 15 -23 0 -30 4 -30
20 0 17 7 20 40 20 29 0 40 4 40 15 0 12 -13 15 -60 15 l-60 0 0 -90z"/>
<path d="M2110 680 c0 -83 1 -90 20 -90 18 0 20 7 21 58 l1 57 15 -57 c20 -77
44 -79 65 -5 l16 52 1 -52 c1 -46 4 -53 21 -53 19 0 20 7 20 90 l0 90 -29 0
c-27 0 -30 -4 -42 -50 -7 -27 -16 -50 -19 -50 -3 0 -12 23 -19 50 -12 46 -15
50 -42 50 l-29 0 0 -90z"/>
</g>
</svg>
